<svg xmlns="http://www.w3.org/2000/svg" viewBox="0 0 100 100" fill="none">
  <defs>
    <linearGradient id="ring" x1="16" y1="59" x2="78" y2="24" gradientUnits="userSpaceOnUse">
      <stop offset="0" stop-color="#1EA1FF" />
      <stop offset="0.48" stop-color="#55E9FF" />
      <stop offset="1" stop-color="#F0A830" />
    </linearGradient>
    <radialGradient id="core" cx="0" cy="0" r="1" gradientTransform="translate(50 50) rotate(90) scale(22)" gradientUnits="userSpaceOnUse">
      <stop offset="0" stop-color="#EAFBFF" />
      <stop offset="0.42" stop-color="#7BEFFF" />
      <stop offset="1" stop-color="#18D7C8" />
    </radialGradient>
  </defs>

  <g stroke-linecap="round" stroke-linejoin="round">
    <line x1="50" y1="50" x2="78" y2="24" stroke="#F0A830" stroke-width="3.2" />
    <line x1="50" y1="50" x2="82" y2="55" stroke="#00C875" stroke-width="3.2" />
    <line x1="50" y1="50" x2="63" y2="81" stroke="#18D7C8" stroke-width="3.2" />
    <line x1="50" y1="50" x2="27" y2="79" stroke="#1EA1FF" stroke-width="3.2" />
    <line x1="50" y1="50" x2="16" y2="59" stroke="#1EA1FF" stroke-width="3.2" />
    <line x1="50" y1="50" x2="36" y2="31" stroke="#00C8E8" stroke-width="3.2" />
  </g>

  <circle cx="50" cy="50" r="17" fill="url(#core)" opacity=".16" />
  <circle cx="50" cy="50" r="14" stroke="url(#ring)" stroke-width="3.4" />
  <circle cx="50" cy="50" r="7" fill="url(#core)" opacity=".92" />
  <circle cx="50" cy="50" r="2.6" fill="#FFFFFF" />

  <g>
    <circle cx="78" cy="24" r="11.4" fill="#F0A830" opacity=".12" />
    <circle cx="78" cy="24" r="9.4" stroke="#F0A830" stroke-width="2.2" />
    <circle cx="78" cy="24" r="5" fill="#F0A830" />

    <circle cx="82" cy="55" r="10.8" fill="#00C875" opacity=".12" />
    <circle cx="82" cy="55" r="8.8" stroke="#00C875" stroke-width="2.2" />
    <circle cx="82" cy="55" r="4.8" fill="#00C875" />

    <circle cx="63" cy="81" r="10.6" fill="#18D7C8" opacity=".12" />
    <circle cx="63" cy="81" r="8.6" stroke="#18D7C8" stroke-width="2.2" />
    <circle cx="63" cy="81" r="4.8" fill="#18D7C8" />

    <circle cx="27" cy="79" r="10.8" fill="#1EA1FF" opacity=".12" />
    <circle cx="27" cy="79" r="8.8" stroke="#1EA1FF" stroke-width="2.2" />
    <circle cx="27" cy="79" r="4.8" fill="#1EA1FF" />

    <circle cx="16" cy="59" r="10.8" fill="#1EA1FF" opacity=".12" />
    <circle cx="16" cy="59" r="8.8" stroke="#1EA1FF" stroke-width="2.2" />
    <circle cx="16" cy="59" r="4.8" fill="#1EA1FF" />

    <circle cx="36" cy="31" r="9.8" fill="#00C8E8" opacity=".12" />
    <circle cx="36" cy="31" r="7.8" stroke="#00C8E8" stroke-width="2.2" />
    <circle cx="36" cy="31" r="4.2" fill="#00C8E8" />
  </g>
</svg>
